<svg width="440" height="340" viewBox="0 0 440 340" xmlns="http://www.w3.org/2000/svg"><rect x="150" y="130" width="140" height="80" rx="10" fill="#DC3030" /><text x="220" y="160" fill="#fff" font-size="20" font-weight="bold" text-anchor="middle">运营中台</text><text x="220" y="188" fill="#F0E8E8" font-size="13" text-anchor="middle">单一工作台</text><g key="0"><line x1="220" y1="170" x2="100" y2="100" stroke="#FD2659" stroke-width="2" /><rect x="70" y="60" width="60" height="40" rx="8" fill="#1A0D0E" stroke="#FD2659" stroke-width="1.5" /><text x="100" y="85" fill="#F0E8E8" font-size="13" text-anchor="middle">赛程</text></g><g key="1"><line x1="220" y1="170" x2="205" y2="100" stroke="#FD2659" stroke-width="2" /><rect x="175" y="60" width="60" height="40" rx="8" fill="#1A0D0E" stroke="#FD2659" stroke-width="1.5" /><text x="205" y="85" fill="#F0E8E8" font-size="13" text-anchor="middle">战队</text></g><g key="2"><line x1="220" y1="170" x2="320" y2="100" stroke="#FD2659" stroke-width="2" /><rect x="290" y="60" width="60" height="40" rx="8" fill="#1A0D0E" stroke="#FD2659" stroke-width="1.5" /><text x="320" y="85" fill="#F0E8E8" font-size="13" text-anchor="middle">图形</text></g><g key="3"><line x1="220" y1="170" x2="395" y2="100" stroke="#FD2659" stroke-width="2" /><rect x="365" y="60" width="60" height="40" rx="8" fill="#1A0D0E" stroke="#FD2659" stroke-width="1.5" /><text x="395" y="85" fill="#F0E8E8" font-size="13" text-anchor="middle">战报</text></g><text x="220" y="40" fill="#B0A0A0" font-size="14" text-anchor="middle">VCT CN 赛事运营全流程</text><line x1="60" y1="40" x2="380" y2="40" stroke="#DC3030" stroke-width="1" stroke-dasharray="4 4" /></svg>